<?xml version="1.0" encoding="utf-8"?>
<!-- Generator: Adobe Illustrator 22.0.0, SVG Export Plug-In . SVG Version: 6.00 Build 0)  -->
<svg xmlns="http://www.w3.org/2000/svg" xmlns:xlink="http://www.w3.org/1999/xlink" version="1.1" id="Layer_1" x="0px" y="0px" viewBox="0 0 256 256" style="enable-background:new 0 0 256 256;" xml:space="preserve" width="512" height="512">
<style type="text/css">
	.st0{fill:#3A312A;}
	.st1{fill:#D7E057;}
	.st2{fill:#8AC6DD;}
	.st3{fill:#87796F;}
	.st4{fill:#B9C239;}
	.st5{fill:#6CA8BF;}
	.st6{fill:#FCE8CB;}
	.st7{fill:#B9BC39;}
	.st8{fill:#68A8BC;}
	.st9{fill:#F16C7A;}
	.st10{fill:#D34E5C;}
	.st11{fill-rule:evenodd;clip-rule:evenodd;fill:#87796F;}
	.st12{fill:#DECAAD;}
	.st13{fill:#695B51;}
	.st14{fill:#6B5B51;}
	.st15{fill-rule:evenodd;clip-rule:evenodd;fill:#FCE8CB;}
	.st16{fill:#F5978A;}
</style>
<g>
	<g>
		<g>
			<path class="st3" d="M203.75,28.78H52.25c-15.3,0-27.75,12.45-27.75,27.75v163.62h14V56.53c0-7.58,6.17-13.75,13.75-13.75h151.5     c7.58,0,13.75,6.17,13.75,13.75v163.62h14V56.53C231.5,41.23,219.05,28.78,203.75,28.78z"/>
		</g>
	</g>
	<g>
		<g>
			<path class="st0" d="M203.75,27.28H52.25C36.122,27.28,23,40.401,23,56.53v62.554c0,0.829,0.671,1.5,1.5,1.5s1.5-0.671,1.5-1.5     V56.53c0-14.474,11.776-26.25,26.25-26.25h151.5c14.474,0,26.25,11.776,26.25,26.25v162.12h-11V56.53     c0-8.409-6.841-15.25-15.25-15.25H52.25C43.841,41.28,37,48.121,37,56.53v162.12H26v-85.84c0-0.829-0.671-1.5-1.5-1.5     s-1.5,0.671-1.5,1.5v87.34c0,0.829,0.671,1.5,1.5,1.5h14c0.829,0,1.5-0.671,1.5-1.5V56.53c0-6.755,5.495-12.25,12.25-12.25h151.5     c6.755,0,12.25,5.495,12.25,12.25v163.62c0,0.829,0.671,1.5,1.5,1.5h14c0.829,0,1.5-0.671,1.5-1.5V56.53     C233,40.401,219.878,27.28,203.75,27.28z"/>
		</g>
	</g>
	<g>
		<g>
			<path class="st6" d="M185.248,119.262c0.883-1.321,1.404-2.905,1.412-4.613c0.022-4.631-3.715-8.403-8.346-8.425     c-1.884-0.009-3.619,0.611-5.024,1.653c-1.53-8.221-8.717-14.465-17.388-14.506c-1.55-0.007-3.054,0.185-4.489,0.551     c-4.47-8.425-13.345-14.148-23.544-14.1c-10.109,0.048-18.866,5.752-23.295,14.098c-1.433-0.365-2.934-0.556-4.481-0.549     c-8.671,0.041-15.859,6.285-17.388,14.506c-1.405-1.042-3.14-1.662-5.024-1.653c-4.631,0.022-8.368,3.794-8.346,8.425     c0.008,1.708,0.529,3.292,1.412,4.613c-3.206,1.19-5.489,4.276-5.471,7.895c0.022,4.631,3.794,8.368,8.425,8.345     c1.895-0.009,3.634-0.653,5.033-1.72c1.293,0.803,2.816,1.27,4.45,1.262c4.611-0.022,8.333-3.763,8.343-8.367     c2.585,1.443,5.564,2.263,8.735,2.248c3.656-0.017,7.048-1.138,9.864-3.044c4.743,4.335,11.063,6.969,17.995,6.936     c6.843-0.032,13.066-2.656,17.748-6.937c2.816,1.906,6.208,3.027,9.864,3.044c3.171,0.015,6.15-0.805,8.735-2.248     c0.01,4.604,3.732,8.345,8.343,8.367c1.634,0.008,3.157-0.46,4.45-1.262c1.399,1.067,3.138,1.711,5.033,1.72     c4.631,0.022,8.403-3.714,8.425-8.345C190.737,123.538,188.455,120.452,185.248,119.262z"/>
		</g>
	</g>
	<g>
		<g>
			<path class="st0" d="M187.322,118.592c0.545-1.234,0.831-2.57,0.838-3.936c0.026-5.451-4.388-9.907-9.839-9.933     c-1.416-0.006-2.783,0.284-4.049,0.849c-2.412-8.012-9.83-13.661-18.363-13.702c-1.27-0.003-2.504,0.11-3.73,0.344     c-5.021-8.607-14.175-13.894-24.181-13.894c-0.045,0-0.091,0.001-0.136,0.001c-9.949,0.047-19.062,5.34-24.053,13.891     c-1.223-0.233-2.465-0.329-3.723-0.342c-8.534,0.041-15.952,5.69-18.363,13.702c-1.267-0.566-2.627-0.856-4.05-0.849     c-5.45,0.026-9.864,4.481-9.838,9.932c0.006,1.366,0.293,2.702,0.838,3.936c-3.001,1.76-4.914,5.022-4.897,8.572     c0.026,5.435,4.456,9.838,9.884,9.838h0.048c1.823-0.008,3.572-0.51,5.112-1.46c1.361,0.666,2.855,1.016,4.372,1.003     c4.635-0.022,8.537-3.271,9.569-7.604c2.37,0.988,4.913,1.477,7.509,1.485c3.441-0.016,6.775-0.938,9.712-2.676     c5.08,4.276,11.519,6.571,18.147,6.569c6.575-0.031,12.881-2.355,17.887-6.569c2.936,1.739,6.27,2.661,9.711,2.677     c2.589-0.006,5.14-0.497,7.509-1.485c1.032,4.333,4.934,7.582,9.569,7.604c1.503,0.025,3.011-0.337,4.372-1.003     c1.54,0.95,3.288,1.452,5.111,1.46h0.049c5.428,0,9.857-4.403,9.884-9.838C192.236,123.615,190.323,120.353,187.322,118.592z      M187.18,132.009c-1.307,1.294-3.083,2.005-4.878,1.993c-1.499-0.007-2.928-0.496-4.13-1.413     c-0.268-0.204-0.588-0.307-0.91-0.307c-0.273,0-0.548,0.075-0.791,0.226c-1.103,0.684-2.329,1.019-3.652,1.037     c-3.769-0.018-6.842-3.1-6.851-6.871c-0.001-0.531-0.284-1.022-0.742-1.291c-0.458-0.268-1.025-0.274-1.489-0.015     c-2.413,1.347-5.149,2.058-7.92,2.058h-0.077c-3.236-0.015-6.359-0.978-9.03-2.786c-0.575-0.389-1.341-0.332-1.853,0.135     c-4.583,4.19-10.529,6.514-16.743,6.544c-0.041,0-0.08,0-0.121,0c-6.252,0-12.234-2.322-16.855-6.544     c-0.511-0.467-1.278-0.524-1.852-0.135c-2.672,1.807-5.794,2.771-9.031,2.786h-0.077c-2.769,0-5.506-0.711-7.919-2.058     c-0.463-0.259-1.03-0.253-1.489,0.015c-0.459,0.269-0.741,0.76-0.742,1.291c-0.008,3.77-3.081,6.853-6.85,6.871     c-1.286-0.014-2.548-0.353-3.651-1.037c-0.528-0.327-1.205-0.296-1.701,0.082c-1.203,0.917-2.631,1.406-4.131,1.413H73.66     c-3.781,0-6.866-3.067-6.885-6.853c-0.014-2.873,1.793-5.478,4.494-6.481c0.43-0.16,0.764-0.508,0.905-0.944     c0.141-0.437,0.075-0.914-0.18-1.296c-0.752-1.124-1.153-2.434-1.159-3.786c-0.018-3.796,3.056-6.9,6.852-6.918     c1.519-0.01,2.917,0.463,4.124,1.358c0.416,0.309,0.961,0.379,1.442,0.191c0.481-0.189,0.832-0.613,0.926-1.121     c1.425-7.658,8.121-13.244,15.921-13.281c1.386-0.009,2.768,0.162,4.104,0.502c0.674,0.17,1.371-0.14,1.695-0.75     c4.33-8.161,12.75-13.257,21.977-13.301c0.041,0,0.081-0.001,0.121-0.001c9.275,0,17.732,5.089,22.09,13.303     c0.325,0.612,1.027,0.921,1.696,0.751c1.339-0.341,2.741-0.506,4.111-0.504c7.8,0.037,14.496,5.623,15.921,13.281     c0.095,0.509,0.445,0.933,0.926,1.121c0.481,0.189,1.027,0.117,1.442-0.191c1.207-0.895,2.591-1.377,4.124-1.358     c3.797,0.018,6.871,3.122,6.853,6.918c-0.006,1.353-0.407,2.662-1.159,3.787c-0.255,0.381-0.321,0.859-0.18,1.295     c0.142,0.437,0.475,0.785,0.905,0.944c2.701,1.003,4.507,3.607,4.493,6.481C189.211,128.989,188.486,130.714,187.18,132.009z"/>
		</g>
	</g>
	<g>
		<g>
			<path class="st3" d="M66.302,206.471c-0.128,0-0.248,0-0.369-0.013v7.862c0,3.22,2.61,5.83,5.83,5.83h5.293     c3.22,0,5.83-2.61,5.83-5.83v-7.849H66.302z"/>
		</g>
	</g>
	<g>
		<g>
			<path class="st0" d="M82.885,204.971H66.302c-0.071-0.001-0.139,0.003-0.206-0.004c-0.426-0.047-0.847,0.09-1.165,0.374     c-0.317,0.284-0.499,0.69-0.499,1.117v7.862c0,4.042,3.288,7.33,7.33,7.33h5.293c4.041,0,7.33-3.288,7.33-7.33v-7.849     C84.385,205.643,83.714,204.971,82.885,204.971z M81.385,214.32c0,2.387-1.942,4.33-4.33,4.33h-5.293     c-2.387,0-4.33-1.942-4.33-4.33v-6.349h13.952V214.32z"/>
		</g>
	</g>
	<g>
		<g>
			<path class="st3" d="M189.698,206.471h-16.637v7.849c0,3.22,2.609,5.83,5.83,5.83h5.293c3.22,0,5.83-2.61,5.83-5.83v-7.856     C189.913,206.471,189.805,206.471,189.698,206.471z"/>
		</g>
	</g>
	<g>
		<g>
			<path class="st0" d="M191.04,205.371c-0.302-0.283-0.713-0.431-1.121-0.403c-0.072,0.003-0.147,0.002-0.221,0.003h-16.637     c-0.829,0-1.5,0.671-1.5,1.5v7.849c0,4.042,3.288,7.33,7.33,7.33h5.293c4.042,0,7.33-3.288,7.33-7.33v-7.855     C191.513,206.051,191.342,205.655,191.04,205.371z M188.513,214.32c0,2.387-1.942,4.33-4.33,4.33h-5.293     c-2.387,0-4.33-1.942-4.33-4.33v-6.349h13.952V214.32z"/>
		</g>
	</g>
	<g>
		<g>
			<path class="st1" d="M189.696,159.988h-0.188l-11.582-25.867c-5.197-11.608-16.729-19.08-29.448-19.08h-40.956     c-12.718,0-24.25,7.472-29.448,19.08l-11.582,25.867h-0.188c-7.237,0-13.103,5.867-13.103,13.104v20.274     c0,7.236,5.867,13.103,13.103,13.103h123.393c7.237,0,13.103-5.867,13.103-13.103v-20.274     C202.8,165.855,196.933,159.988,189.696,159.988z"/>
		</g>
	</g>
	<g>
		<g>
			<path class="st0" d="M190.49,158.51l-11.195-25.001c-5.431-12.129-17.527-19.967-30.817-19.967h-40.956     c-13.29,0-25.386,7.837-30.817,19.967L65.51,158.51c-7.685,0.413-13.81,6.796-13.81,14.582v20.274     c0,8.052,6.551,14.603,14.604,14.603h123.393c8.052,0,14.604-6.551,14.604-14.603v-20.274     C204.3,165.306,198.174,158.923,190.49,158.51z M201.3,193.366c0,6.398-5.205,11.603-11.604,11.603H66.304     c-6.398,0-11.604-5.205-11.604-11.603v-20.274c0-6.398,5.205-11.604,11.604-11.604h0.188c0.591,0,1.127-0.347,1.369-0.887     l11.582-25.867c4.949-11.051,15.97-18.192,28.079-18.192h40.956c12.109,0,23.13,7.141,28.079,18.192l11.583,25.867     c0.242,0.54,0.778,0.887,1.369,0.887h0.188c6.398,0,11.604,5.205,11.604,11.604V193.366z"/>
		</g>
	</g>
	<g>
		<g>
			<path class="st2" d="M172.673,155.194l-7.928-17.707c-3.191-7.126-10.27-11.713-18.078-11.713h-37.335     c-7.808,0-14.887,4.587-18.078,11.713l-7.928,17.707c-1.008,2.251,0.639,4.794,3.106,4.794h14.179h9.495h59.461     C172.034,159.988,173.681,157.446,172.673,155.194z"/>
		</g>
	</g>
	<g>
		<g>
			<path class="st0" d="M174.042,154.581l-7.928-17.706c-3.427-7.654-11.061-12.6-19.447-12.6h-37.335     c-8.386,0-16.019,4.946-19.447,12.6l-7.928,17.706c-0.682,1.523-0.547,3.269,0.36,4.67c0.908,1.401,2.446,2.237,4.115,2.237     h83.135c1.669,0,3.208-0.836,4.115-2.237C174.59,157.85,174.725,156.105,174.042,154.581z M171.165,157.62     c-0.357,0.552-0.939,0.868-1.597,0.868H86.433c-0.658,0-1.24-0.316-1.597-0.868c-0.357-0.552-0.409-1.212-0.14-1.813     l7.928-17.706c2.944-6.576,9.503-10.826,16.708-10.826h37.335c7.206,0,13.764,4.249,16.709,10.826l7.928,17.707     C171.573,156.408,171.522,157.068,171.165,157.62z"/>
		</g>
	</g>
	<g>
		<g>
			<path class="st2" d="M80.531,173.813c-4.863,0-8.805,3.942-8.805,8.805c0,4.863,3.942,8.805,8.805,8.805     c4.863,0,8.805-3.942,8.805-8.805C89.336,177.755,85.394,173.813,80.531,173.813z"/>
		</g>
	</g>
	<g>
		<g>
			<path class="st0" d="M80.531,172.313c-5.682,0-10.305,4.623-10.305,10.305c0,5.682,4.622,10.305,10.305,10.305     c5.682,0,10.305-4.623,10.305-10.305C90.836,176.936,86.213,172.313,80.531,172.313z M80.531,189.923     c-4.028,0-7.305-3.277-7.305-7.305c0-4.028,3.277-7.305,7.305-7.305c4.028,0,7.305,3.277,7.305,7.305     C87.836,186.646,84.56,189.923,80.531,189.923z"/>
		</g>
	</g>
	<g>
		<g>
			<path class="st2" d="M175.416,173.813c-4.863,0-8.805,3.942-8.805,8.805c0,4.863,3.942,8.805,8.805,8.805     c4.863,0,8.805-3.942,8.805-8.805C184.221,177.755,180.279,173.813,175.416,173.813z"/>
		</g>
	</g>
	<g>
		<g>
			<path class="st0" d="M175.416,172.313c-5.682,0-10.305,4.623-10.305,10.305c0,5.682,4.623,10.305,10.305,10.305     s10.305-4.623,10.305-10.305C185.721,176.936,181.098,172.313,175.416,172.313z M175.416,189.923     c-4.028,0-7.305-3.277-7.305-7.305c0-4.028,3.277-7.305,7.305-7.305s7.305,3.277,7.305,7.305     C182.721,186.646,179.444,189.923,175.416,189.923z"/>
		</g>
	</g>
	<g>
		<g>
			<path class="st3" d="M146.329,179.114h-35.988c-3.03,0-5.486,2.456-5.486,5.486v6.47c0,3.03,2.456,5.486,5.486,5.486h35.988     c3.03,0,5.486-2.456,5.486-5.486v-6.47C151.815,181.57,149.359,179.114,146.329,179.114z"/>
		</g>
	</g>
	<g>
		<g>
			<path class="st0" d="M146.329,177.614h-35.987c-3.852,0-6.986,3.134-6.986,6.986v6.47c0,3.852,3.134,6.986,6.986,6.986h35.987     c3.852,0,6.986-3.134,6.986-6.985V184.6C153.315,180.748,150.181,177.614,146.329,177.614z M150.315,191.07     c0,2.198-1.788,3.985-3.986,3.985h-35.987c-2.198,0-3.986-1.788-3.986-3.986v-6.47c0-2.198,1.788-3.986,3.986-3.986h35.987     c2.198,0,3.986,1.788,3.986,3.986V191.07z"/>
		</g>
	</g>
	<g>
		<g>
			<path class="st3" d="M67.25,141.356l-9.301,1.057c-2.705,0.307-4.749,2.596-4.749,5.319v0c0,2.677,1.978,4.943,4.631,5.304     l9.369,1.276c1.361,0.185,2.572-0.873,2.572-2.246v-8.458C69.772,142.255,68.594,141.204,67.25,141.356z"/>
		</g>
	</g>
	<g>
		<g>
			<path class="st0" d="M70.015,140.799c-0.799-0.714-1.867-1.053-2.934-0.933l-9.301,1.057c-3.466,0.394-6.08,3.321-6.08,6.81     c0,3.411,2.549,6.33,5.929,6.79l9.369,1.275c0.17,0.023,0.339,0.035,0.509,0.035c0.905,0,1.786-0.327,2.476-0.929     c0.819-0.715,1.29-1.749,1.29-2.837v-8.458C71.272,142.537,70.814,141.513,70.015,140.799z M68.272,152.066     c0,0.303-0.165,0.492-0.263,0.578c-0.097,0.086-0.302,0.225-0.607,0.182c0,0,0,0-0.001,0l-9.368-1.275     c-1.901-0.259-3.334-1.9-3.334-3.818c0-1.961,1.47-3.607,3.418-3.829l9.3-1.057c0.031-0.003,0.061-0.005,0.09-0.005     c0.248,0,0.421,0.119,0.507,0.195c0.095,0.085,0.256,0.273,0.256,0.572V152.066z"/>
		</g>
	</g>
	<g>
		<g>
			<path class="st3" d="M198.051,142.413l-9.301-1.057c-1.345-0.153-2.523,0.899-2.523,2.252v8.458c0,1.373,1.212,2.431,2.572,2.246     l9.369-1.276c2.653-0.361,4.631-2.627,4.631-5.304v0C202.8,145.01,200.756,142.721,198.051,142.413z"/>
		</g>
	</g>
	<g>
		<g>
			<path class="st0" d="M198.22,140.923l-9.301-1.057c-1.065-0.124-2.134,0.219-2.934,0.933c-0.799,0.714-1.258,1.738-1.258,2.81     v8.458c0,1.088,0.47,2.122,1.29,2.837c0.69,0.603,1.571,0.929,2.476,0.929c0.169,0,0.339-0.012,0.509-0.035l9.369-1.275     c3.38-0.46,5.929-3.379,5.929-6.79C204.3,144.244,201.686,141.317,198.22,140.923z M197.966,151.55l-9.369,1.275     c-0.001,0-0.001,0-0.001,0c-0.307,0.043-0.509-0.096-0.607-0.182c-0.098-0.086-0.263-0.274-0.263-0.578v-8.458     c0-0.299,0.161-0.486,0.256-0.572c0.086-0.077,0.259-0.195,0.507-0.195c0.029,0,0.059,0.002,0.09,0.005l9.301,1.057     c1.949,0.222,3.419,1.868,3.419,3.829C201.3,149.65,199.867,151.292,197.966,151.55z"/>
		</g>
	</g>
	<g>
		<g>
			<path class="st6" d="M181.333,81.163c-4.817,0-8.721,3.905-8.721,8.721c0,4.816,3.905,8.721,8.721,8.721     c4.816,0,8.721-3.905,8.721-8.721C190.054,85.068,186.149,81.163,181.333,81.163z"/>
		</g>
	</g>
	<g>
		<g>
			<path class="st0" d="M181.333,79.663c-5.636,0-10.221,4.585-10.221,10.221c0,5.636,4.585,10.221,10.221,10.221     c5.636,0,10.221-4.586,10.221-10.221C191.554,84.248,186.968,79.663,181.333,79.663z M181.333,97.105     c-3.982,0-7.221-3.239-7.221-7.221c0-3.982,3.239-7.221,7.221-7.221c3.982,0,7.221,3.239,7.221,7.221     C188.554,93.866,185.314,97.105,181.333,97.105z"/>
		</g>
	</g>
	<g>
		<g>
			<path class="st6" d="M152.861,80.493c-4.631-0.022-8.403,3.715-8.425,8.346c-0.022,4.631,3.715,8.403,8.346,8.425     c4.631,0.022,8.403-3.715,8.425-8.346C161.229,84.287,157.492,80.515,152.861,80.493z"/>
		</g>
	</g>
	<g>
		<g>
			<path class="st0" d="M152.869,78.993c-2.645-0.012-5.128,1.004-7.004,2.862c-1.876,1.858-2.916,4.336-2.929,6.976     c-0.013,2.641,1.003,5.128,2.862,7.004c1.858,1.876,4.336,2.916,6.977,2.929h0.048c2.622,0,5.091-1.015,6.956-2.862     c1.876-1.858,2.916-4.336,2.929-6.976C162.733,83.474,158.319,79.019,152.869,78.993z M157.667,93.77     c-1.307,1.295-3.04,1.977-4.878,1.994c-1.839-0.009-3.565-0.733-4.86-2.04c-1.294-1.307-2.002-3.039-1.993-4.878     c0.009-1.839,0.733-3.565,2.04-4.859c1.299-1.287,3.018-1.994,4.845-1.994h0.033c1.839,0.009,3.565,0.733,4.859,2.04     c1.294,1.307,2.002,3.039,1.994,4.878C159.698,90.75,158.974,92.476,157.667,93.77z"/>
		</g>
	</g>
	<g>
		<g>
			<path class="st6" d="M91.798,68.28c-4.631-0.022-8.403,3.715-8.425,8.346c-0.022,4.631,3.715,8.403,8.346,8.426     c4.631,0.022,8.403-3.715,8.426-8.346C100.166,72.074,96.43,68.302,91.798,68.28z"/>
		</g>
	</g>
	<g>
		<g>
			<path class="st0" d="M91.806,66.78h-0.048c-5.429,0-9.859,4.404-9.885,9.839c-0.013,2.641,1.004,5.128,2.862,7.004     c1.858,1.876,4.336,2.916,6.976,2.929h0.048c5.429,0,9.859-4.404,9.885-9.838C101.67,71.262,97.256,66.806,91.806,66.78z      M91.759,83.551h-0.033c-1.839-0.009-3.565-0.733-4.859-2.04c-1.294-1.307-2.002-3.039-1.994-4.878     c0.018-3.786,3.103-6.854,6.885-6.854h0.033c3.797,0.019,6.871,3.122,6.853,6.918C98.626,80.484,95.541,83.552,91.759,83.551z"/>
		</g>
	</g>
	<g>
		<g>
			<path class="st9" d="M168.516,16.28H87.483c-4.857,0-8.795,3.938-8.795,8.795v21.86c0,4.857,3.937,8.795,8.795,8.795h81.033     c4.857,0,8.795-3.938,8.795-8.795v-21.86C177.311,20.217,173.374,16.28,168.516,16.28z"/>
		</g>
	</g>
	<g>
		<g>
			<path class="st0" d="M168.517,14.78h-50.241c-0.829,0-1.5,0.671-1.5,1.5c0,0.829,0.671,1.5,1.5,1.5h50.241     c4.022,0,7.294,3.272,7.294,7.295v21.859c0,4.022-3.272,7.295-7.294,7.295H87.483c-4.022,0-7.294-3.272-7.294-7.295V25.075     c0-4.022,3.272-7.295,7.294-7.295h17.575c0.829,0,1.5-0.671,1.5-1.5c0-0.829-0.671-1.5-1.5-1.5H87.483     c-5.676,0-10.294,4.618-10.294,10.295v21.859c0,5.677,4.618,10.295,10.294,10.295h81.033c5.676,0,10.294-4.618,10.294-10.295     V25.075C178.811,19.398,174.193,14.78,168.517,14.78z"/>
		</g>
	</g>
	<g>
		<g>
			<path class="st2" d="M62.096,182.102h-0.007c0.059,0.052,0.112,0.118,0.178,0.177C62.214,182.22,62.155,182.161,62.096,182.102z"/>
		</g>
	</g>
	<g>
		<g>
			<rect x="16.56" y="220.148" class="st9" width="222.88" height="19.573"/>
		</g>
	</g>
	<g>
		<g>
			<path class="st0" d="M239.44,218.648H16.56c-0.829,0-1.5,0.671-1.5,1.5v19.573c0,0.829,0.671,1.5,1.5,1.5H239.44     c0.829,0,1.5-0.671,1.5-1.5v-19.573C240.94,219.319,240.269,218.648,239.44,218.648z M237.94,238.22H18.06v-16.573H237.94V238.22     z"/>
		</g>
	</g>
	<g>
		<g>
			<rect x="222.94" y="221.65" class="st10" width="15" height="16.57"/>
		</g>
	</g>
</g>
</svg>
